<?xml version="1.0" encoding="UTF-8" standalone="no"?>
<svg
   version="1.1"
   id="svg885"
   width="22.000015"
   height="22.000208"
   viewBox="0 0 22.000015 22.000208"
   sodipodi:docname="battery-status-paused-dark.svg"
   inkscape:version="1.1.2 (0a00cf5339, 2022-02-04, custom)"
   xmlns:inkscape="http://www.inkscape.org/namespaces/inkscape"
   xmlns:sodipodi="http://sodipodi.sourceforge.net/DTD/sodipodi-0.dtd"
   xmlns="http://www.w3.org/2000/svg"
   xmlns:svg="http://www.w3.org/2000/svg"
   xmlns:rdf="http://www.w3.org/1999/02/22-rdf-syntax-ns#"
   xmlns:cc="http://creativecommons.org/ns#"
   xmlns:dc="http://purl.org/dc/elements/1.1/">
  <metadata
     id="metadata891">
    <rdf:RDF>
      <cc:Work
         rdf:about="">
        <dc:format>image/svg+xml</dc:format>
        <dc:type
           rdf:resource="http://purl.org/dc/dcmitype/StillImage" />
      </cc:Work>
    </rdf:RDF>
  </metadata>
  <defs
     id="defs889" />
  <sodipodi:namedview
     pagecolor="#ffffff"
     bordercolor="#666666"
     borderopacity="1"
     objecttolerance="10"
     gridtolerance="10"
     guidetolerance="10"
     inkscape:pageopacity="0"
     inkscape:pageshadow="2"
     inkscape:window-width="1920"
     inkscape:window-height="1043"
     id="namedview887"
     showgrid="false"
     fit-margin-top="1"
     fit-margin-left="2"
     fit-margin-right="2"
     fit-margin-bottom="1"
     inkscape:zoom="5.7427327"
     inkscape:cx="-3.2214628"
     inkscape:cy="15.062515"
     inkscape:window-x="0"
     inkscape:window-y="0"
     inkscape:window-maximized="1"
     inkscape:current-layer="g893"
     inkscape:pagecheckerboard="0" />
  <g
     inkscape:groupmode="layer"
     inkscape:label="Image"
     id="g893"
     transform="translate(-108.90618,-101.99783)">
    <g
       id="g82841"
       style="overflow:hidden;fill:currentColor"
       transform="matrix(0.01788482,0,0,0.01788482,117.56415,84.86059)">
      <path
         id="path55787"
         d="m 548.83941,2043.4099 c 47.36,0 85.332,-37.974 85.332,-85.334 v -597.334 c 0,-47.36 -37.972,-85.3321 -85.332,-85.3321 l -520.440706,0.01 264.440806,767.9916 z"
         sodipodi:nodetypes="ssssccs"
         style="fill:#dcd8d0;fill-opacity:1" />
      <path
         d="m 249.40637,1396.5123 v 70.6714 l -118.92825,0.3064 24.22864,70.3651 H 390.7493 c -19.08121,43.1094 -26.1484,82.6855 -84.09893,150.53 -28.26867,-33.2156 -50.88347,-62.1909 -57.244,-79.8588 l -70.3778,-0.036 c 8.48053,30.3888 43.52273,77.7743 85.92553,125.8308 -9.1872,9.1874 -20.76776,20.6687 -32.07496,30.5627 l 20.22225,58.7297 c 17.668,-15.5475 33.76098,-30.6352 51.42871,-46.8895 72.0848,75.6183 148.4099,145.583 148.4099,145.583 l 39.5761,-42.4028 c 0,0 -75.6185,-74.205 -143.4629,-147.7032 44.5229,-49.47 84.0989,-109.5406 112.3673,-194.3463 h 70.6715 v -70.6714 H 320.07797 v -70.6714 z"
         id="path55789"
         sodipodi:nodetypes="ccccccccccccccccccccc"
         style="fill:#7c7c7c;fill-opacity:1;stroke-width:1.65636" />
      <path
         id="path55791"
         d="m -286.93692,1103.0959 c -47.36,0 -85.332,37.974 -85.332,85.334 v 597.3339 c 0,47.36 37.972,85.3321 85.332,85.3321 l 520.4407,-0.01 -264.440722,-767.9916 z"
         sodipodi:nodetypes="ssssccs"
         style="fill:#7c7c7c;fill-opacity:1" />
      <path
         id="path55793"
         d="m -172.70866,1320.1459 h 102.652288 l 123.67379,333.8984 h -86.54879 l -21.0234,-60.83 H -188.58757 l -21.2442,60.83 h -86.55079 z m 51.4375,78.2754 -45.8457,132.8437 h 91.468698 z"
         sodipodi:nodetypes="ccccccccccccc"
         style="fill:#dcd8d0;fill-opacity:1" />
    </g>
  </g>
</svg>
